<svg width="457" height="77" viewBox="0 0 457 77" fill="none" xmlns="http://www.w3.org/2000/svg">
<path d="M295.384 32.6482V16H302.607C304.43 16 305.862 16.3647 306.902 17.094C307.942 17.8234 308.462 18.8857 308.462 20.281C308.462 21.6445 307.966 22.691 306.974 23.4203C305.982 24.1338 304.678 24.4906 303.063 24.4906L303.495 23.7771C305.366 23.7771 306.798 24.1497 307.79 24.8949C308.798 25.6242 309.302 26.6945 309.302 28.1056C309.302 29.5326 308.774 30.6504 307.718 31.459C306.678 32.2518 305.126 32.6482 303.063 32.6482H295.384ZM297.76 30.7693H303.015C304.294 30.7693 305.254 30.5394 305.894 30.0796C306.55 29.6039 306.878 28.8825 306.878 27.9153C306.878 26.9482 306.55 26.2426 305.894 25.7986C305.254 25.3547 304.294 25.1327 303.015 25.1327H297.76V30.7693ZM297.76 23.3252H302.439C303.607 23.3252 304.494 23.0953 305.102 22.6355C305.726 22.1757 306.038 21.5018 306.038 20.6139C306.038 19.7102 305.726 19.0284 305.102 18.5686C304.494 18.1088 303.607 17.8789 302.439 17.8789H297.76V23.3252Z" fill="black"/>
<path d="M325.5 32.6482V20.0431H327.804V32.6482H325.5ZM318.662 24.3241C320.277 24.3399 321.501 24.7046 322.333 25.4181C323.181 26.1316 323.605 27.1384 323.605 28.4386C323.605 29.8021 323.141 30.8565 322.213 31.6017C321.301 32.3311 319.989 32.6878 318.278 32.672L312.927 32.6482V20.0431H315.23V24.3003L318.662 24.3241ZM318.11 30.9358C319.134 30.9516 319.917 30.7455 320.461 30.3174C321.005 29.8893 321.277 29.2551 321.277 28.4148C321.277 27.5903 321.005 26.9878 320.461 26.6073C319.933 26.2267 319.15 26.0285 318.11 26.0127L315.23 25.9651V30.912L318.11 30.9358Z" fill="black"/>
<path d="M337.826 32.7909C336.53 32.7909 335.37 32.5134 334.346 31.9585C333.338 31.4035 332.547 30.6425 331.971 29.6753C331.395 28.7081 331.107 27.5982 331.107 26.3456C331.107 25.0931 331.395 23.9832 331.971 23.016C332.547 22.0488 333.338 21.2957 334.346 20.7566C335.37 20.2017 336.53 19.9242 337.826 19.9242C338.977 19.9242 340.001 20.1541 340.897 20.6139C341.809 21.0579 342.513 21.7238 343.009 22.6117L341.257 23.7295C340.841 23.1111 340.329 22.6593 339.721 22.3739C339.129 22.0726 338.49 21.922 337.802 21.922C336.97 21.922 336.226 22.1043 335.57 22.469C334.914 22.8337 334.394 23.349 334.01 24.0149C333.626 24.665 333.434 25.4419 333.434 26.3456C333.434 27.2494 333.626 28.0342 334.01 28.7002C334.394 29.3661 334.914 29.8814 335.57 30.2461C336.226 30.6108 336.97 30.7931 337.802 30.7931C338.49 30.7931 339.129 30.6504 339.721 30.365C340.329 30.0637 340.841 29.6039 341.257 28.9856L343.009 30.0796C342.513 30.9516 341.809 31.6255 340.897 32.1012C340.001 32.561 338.977 32.7909 337.826 32.7909Z" fill="black"/>
<path d="M354.438 30.6504L353.91 31.245V20.0431H356.213V31.245L355.638 30.6504H362.356L361.804 31.245V20.0431H364.108V32.6482H345.991V20.0431H348.295V31.245L347.743 30.6504H354.438Z" fill="black"/>
<path d="M376.38 32.6482V29.9845L376.26 29.485V24.9424C376.26 23.9753 375.972 23.2301 375.396 22.7068C374.836 22.1678 373.988 21.8982 372.852 21.8982C372.1 21.8982 371.365 22.0251 370.645 22.2787C369.925 22.5166 369.317 22.8416 368.821 23.2538L367.861 21.5415C368.517 21.0182 369.301 20.6218 370.213 20.3523C371.141 20.0669 372.108 19.9242 373.116 19.9242C374.86 19.9242 376.204 20.3444 377.148 21.1847C378.091 22.0251 378.563 23.3093 378.563 25.0376V32.6482H376.38ZM372.204 32.7909C371.261 32.7909 370.429 32.6323 369.709 32.3152C369.005 31.9981 368.461 31.5621 368.077 31.0071C367.693 30.4363 367.501 29.7942 367.501 29.0807C367.501 28.3989 367.661 27.7806 367.981 27.2256C368.317 26.6707 368.853 26.2267 369.589 25.8938C370.341 25.5608 371.349 25.3943 372.612 25.3943H376.644V27.0354H372.708C371.557 27.0354 370.781 27.2256 370.381 27.6062C369.981 27.9867 369.781 28.4465 369.781 28.9856C369.781 29.6039 370.029 30.1034 370.525 30.4839C371.021 30.8486 371.709 31.0309 372.588 31.0309C373.452 31.0309 374.204 30.8407 374.844 30.4601C375.5 30.0796 375.972 29.5247 376.26 28.7953L376.716 30.365C376.412 31.1102 375.876 31.7048 375.108 32.1487C374.34 32.5768 373.372 32.7909 372.204 32.7909Z" fill="black"/>
<path d="M390.846 32.6482V28.2245L391.206 28.6526H387.151C385.455 28.6526 384.127 28.2959 383.167 27.5824C382.224 26.8689 381.752 25.8303 381.752 24.4668C381.752 23.0081 382.256 21.9061 383.263 21.1609C384.287 20.4157 385.647 20.0431 387.343 20.0431H392.91V32.6482H390.846ZM381.632 32.6482L385.087 27.8202H387.463L384.103 32.6482H381.632ZM390.846 27.511V21.3988L391.206 22.0409H387.415C386.359 22.0409 385.543 22.2391 384.967 22.6355C384.391 23.016 384.103 23.6502 384.103 24.5381C384.103 26.1871 385.175 27.0116 387.319 27.0116H391.206L390.846 27.511Z" fill="black"/>
<path d="M303.447 59.3883L302.919 59.9829V48.781H305.222V59.9829L304.646 59.3883H311.365L310.813 59.9829V48.781H313.117V61.3861H295V48.781H297.304V59.9829L296.752 59.3883H303.447Z" fill="black"/>
<path d="M326.804 61.3861L321.885 55.25L323.781 54.1085L329.516 61.3861H326.804ZM317.59 61.3861V48.781H319.893V61.3861H317.59ZM319.198 56.0587V54.1085H323.397V56.0587H319.198ZM323.973 55.3452L321.837 55.0598L326.708 48.781H329.18L323.973 55.3452Z" fill="black"/>
<path d="M336.956 61.5288C335.677 61.5288 334.541 61.2513 333.549 60.6964C332.557 60.1414 331.773 59.3804 331.197 58.4132C330.621 57.4302 330.334 56.3203 330.334 55.0836C330.334 53.831 330.621 52.7211 331.197 51.7539C331.773 50.7867 332.557 50.0336 333.549 49.4945C334.541 48.9396 335.677 48.6621 336.956 48.6621C338.22 48.6621 339.348 48.9396 340.34 49.4945C341.348 50.0336 342.131 50.7867 342.691 51.7539C343.267 52.7052 343.555 53.8151 343.555 55.0836C343.555 56.3361 343.267 57.446 342.691 58.4132C342.131 59.3804 341.348 60.1414 340.34 60.6964C339.348 61.2513 338.22 61.5288 336.956 61.5288ZM336.956 59.531C337.772 59.531 338.5 59.3487 339.14 58.984C339.796 58.6193 340.308 58.104 340.676 57.4381C341.044 56.7563 341.228 55.9715 341.228 55.0836C341.228 54.1798 341.044 53.4029 340.676 52.7528C340.308 52.0869 339.796 51.5716 339.14 51.2069C338.5 50.8422 337.772 50.6599 336.956 50.6599C336.141 50.6599 335.413 50.8422 334.773 51.2069C334.133 51.5716 333.621 52.0869 333.237 52.7528C332.853 53.4029 332.661 54.1798 332.661 55.0836C332.661 55.9715 332.853 56.7563 333.237 57.4381C333.621 58.104 334.133 58.6193 334.773 58.984C335.413 59.3487 336.141 59.531 336.956 59.531Z" fill="black"/>
<path d="M344.676 61.3623L344.82 59.4359C344.932 59.4517 345.036 59.4676 345.132 59.4834C345.228 59.4993 345.316 59.5072 345.396 59.5072C345.908 59.5072 346.308 59.3328 346.596 58.984C346.9 58.6352 347.124 58.1754 347.268 57.6046C347.412 57.0179 347.516 56.3599 347.58 55.6306C347.644 54.9012 347.692 54.1719 347.724 53.4425L347.94 48.781H357.706V61.3861H355.402V50.1129L355.954 50.7788H349.427L349.955 50.0891L349.787 53.5852C349.739 54.6951 349.651 55.7336 349.523 56.7008C349.395 57.668 349.196 58.5162 348.924 59.2456C348.668 59.9749 348.308 60.5457 347.844 60.958C347.396 61.3702 346.812 61.5763 346.092 61.5763C345.884 61.5763 345.66 61.5526 345.42 61.505C345.196 61.4733 344.948 61.4257 344.676 61.3623Z" fill="black"/>
<path d="M369.959 61.3861V58.7224L369.839 58.2229V53.6804C369.839 52.7132 369.551 51.968 368.975 51.4447C368.415 50.9057 367.567 50.6361 366.432 50.6361C365.68 50.6361 364.944 50.763 364.224 51.0166C363.504 51.2545 362.896 51.5795 362.4 51.9918L361.44 50.2794C362.096 49.7561 362.88 49.3598 363.792 49.0902C364.72 48.8048 365.688 48.6621 366.696 48.6621C368.439 48.6621 369.783 49.0823 370.727 49.9226C371.671 50.763 372.143 52.0472 372.143 53.7755V61.3861H369.959ZM365.784 61.5288C364.84 61.5288 364.008 61.3702 363.288 61.0531C362.584 60.736 362.04 60.3 361.656 59.745C361.272 59.1743 361.08 58.5321 361.08 57.8186C361.08 57.1368 361.24 56.5185 361.56 55.9635C361.896 55.4086 362.432 54.9646 363.168 54.6317C363.92 54.2987 364.928 54.1322 366.192 54.1322H370.223V55.7733H366.288C365.136 55.7733 364.36 55.9635 363.96 56.3441C363.56 56.7246 363.36 57.1844 363.36 57.7235C363.36 58.3418 363.608 58.8413 364.104 59.2218C364.6 59.5865 365.288 59.7688 366.168 59.7688C367.031 59.7688 367.783 59.5786 368.423 59.198C369.079 58.8175 369.551 58.2626 369.839 57.5332L370.295 59.1029C369.991 59.8481 369.455 60.4427 368.687 60.8866C367.919 61.3147 366.951 61.5288 365.784 61.5288Z" fill="black"/>
<path d="M382.735 61.3861V48.781H385.038V54.1322H392.285V48.781H394.589V61.3861H392.285V56.1062H385.038V61.3861H382.735Z" fill="black"/>
<path d="M404.731 61.5288C403.371 61.5288 402.171 61.2513 401.132 60.6964C400.108 60.1414 399.308 59.3804 398.732 58.4132C398.172 57.446 397.892 56.3361 397.892 55.0836C397.892 53.831 398.164 52.7211 398.708 51.7539C399.268 50.7867 400.028 50.0336 400.988 49.4945C401.963 48.9396 403.059 48.6621 404.275 48.6621C405.507 48.6621 406.595 48.9317 407.539 49.4707C408.482 50.0098 409.218 50.7709 409.746 51.7539C410.29 52.7211 410.562 53.8548 410.562 55.1549C410.562 55.25 410.554 55.361 410.538 55.4879C410.538 55.6147 410.53 55.7336 410.514 55.8446H399.692V54.2036H409.314L408.378 54.7744C408.394 53.9658 408.226 53.2443 407.874 52.6101C407.523 51.9759 407.035 51.4844 406.411 51.1356C405.803 50.7709 405.091 50.5886 404.275 50.5886C403.475 50.5886 402.763 50.7709 402.139 51.1356C401.516 51.4844 401.028 51.9838 400.676 52.6339C400.324 53.2681 400.148 53.9975 400.148 54.8219V55.2025C400.148 56.0428 400.34 56.7959 400.724 57.4619C401.124 58.1119 401.676 58.6193 402.379 58.984C403.083 59.3487 403.891 59.531 404.803 59.531C405.555 59.531 406.235 59.4042 406.843 59.1505C407.467 58.8968 408.01 58.5163 408.474 58.0089L409.746 59.4834C409.17 60.1494 408.45 60.6567 407.587 61.0055C406.739 61.3544 405.787 61.5288 404.731 61.5288Z" fill="black"/>
<path d="M421.718 61.5763C421.702 61.5763 421.646 61.5763 421.55 61.5763C421.47 61.5763 421.39 61.5763 421.31 61.5763C421.23 61.5763 421.182 61.5763 421.166 61.5763C418.559 61.5446 416.535 60.9738 415.096 59.864C413.656 58.7382 412.936 57.1368 412.936 55.0598C412.936 52.9986 413.656 51.421 415.096 50.3269C416.551 49.2171 418.599 48.6542 421.238 48.6383C421.27 48.6383 421.318 48.6383 421.382 48.6383C421.462 48.6383 421.534 48.6383 421.598 48.6383C421.678 48.6383 421.726 48.6383 421.742 48.6383C424.414 48.6383 426.486 49.1933 427.957 50.3032C429.445 51.413 430.189 52.9986 430.189 55.0598C430.189 57.1527 429.445 58.762 427.957 59.8877C426.47 61.0135 424.39 61.5763 421.718 61.5763ZM421.67 59.5786C423.062 59.5786 424.214 59.4042 425.126 59.0553C426.054 58.7065 426.75 58.1991 427.213 57.5332C427.677 56.8673 427.909 56.0428 427.909 55.0598C427.909 54.0926 427.677 53.284 427.213 52.6339C426.75 51.9838 426.054 51.4923 425.126 51.1593C424.214 50.8264 423.062 50.6599 421.67 50.6599C421.638 50.6599 421.574 50.6599 421.478 50.6599C421.382 50.6599 421.326 50.6599 421.31 50.6599C419.951 50.6599 418.815 50.8343 417.903 51.1831C417.007 51.5161 416.335 52.0076 415.887 52.6577C415.439 53.3078 415.216 54.1084 415.216 55.0598C415.216 56.027 415.439 56.8435 415.887 57.5094C416.351 58.1754 417.031 58.6827 417.927 59.0316C418.839 59.3804 419.967 59.5627 421.31 59.5786C421.342 59.5786 421.398 59.5786 421.478 59.5786C421.574 59.5786 421.638 59.5786 421.67 59.5786ZM420.423 66V43.739H422.678V66H420.423Z" fill="black"/>
<path d="M435.496 61.3861V50.1842L436.072 50.7788H430.841V48.781H442.455V50.7788H437.247L437.799 50.1842V61.3861H435.496Z" fill="black"/>
<path d="M444.81 61.3861V48.781H447.114V57.9613L454.912 48.781H457V61.3861H454.696V52.2058L446.922 61.3861H444.81Z" fill="black"/>
<path d="M80 63L100.304 17H110.716L131.085 63H120.022L103.363 22.3886H107.528L90.8028 63H80ZM90.152 53.1429L92.9503 45.06H116.378L119.241 53.1429H90.152Z" fill="black"/>
<path d="M137.126 63V17H169.274L169.209 25.6743H145.131L147.539 23.2429L147.604 63H137.126Z" fill="black"/>
<path d="M206.939 17H217.482V63H206.939V17ZM186.245 63H175.702V17H186.245V63ZM207.72 44.14H185.464V35.1371H207.72V44.14Z" fill="black"/>
<path d="M228.895 63V17H239.373V46.9657L261.108 17H271V63H260.588V33.1L238.852 63H228.895Z" fill="black"/>
<path d="M0.916326 58.2032C0.638377 57.2716 0.425769 56.3228 0.279963 55.3634C8.24666 52.9175 16.4999 51.4573 24.8437 51.0173C30.4499 50.651 36.0072 49.7662 41.44 48.3751C46.086 46.8593 50.1972 44.1034 53.3018 40.4237C55.0071 43.9689 55.9263 47.8218 56 51.7334C55.9931 53.1498 55.8568 54.563 55.5927 55.9561C55.2873 56.1783 52.92 57.7834 44.2909 58.623C34.7709 59.5613 1.65451 58.2279 0.916326 58.2032ZM26.1164 35.6331C18.7014 40.8224 10.0291 44.0634 0.941806 45.0414C0.387104 46.9317 0.0708666 48.8803 0 50.8444C4.93815 48.8288 10.1362 47.4746 15.4509 46.8193C26.6764 44.992 33.4727 44.5228 39.7855 40.6953C43.3174 38.6359 46.4598 36.0051 49.0764 32.9168C46.5309 28.9904 43.5273 25.1383 40.6254 21.2366C36.6482 26.785 31.7446 31.6506 26.1164 35.6331V35.6331ZM22.4763 27.0643C27.2625 23.0914 31.5743 18.6103 35.3309 13.705V13.705C32.506 9.33428 30.046 4.75135 27.9745 0C25.7233 5.15665 23.015 10.114 19.88 14.8163C14.2545 23.2862 6.84724 31.4104 2.82542 40.0038C10.0581 36.7571 16.6957 32.3864 22.4763 27.0643V27.0643ZM34.7454 68.3276C28.7236 67.1561 22.7747 65.6557 16.9273 63.8334C11.9541 62.5126 6.89385 61.5225 1.78177 60.8701C4.01831 65.7513 7.68877 69.8844 12.334 72.7525C16.9792 75.6206 22.3929 77.0963 27.8982 76.9951C32.0555 77.03 36.1713 76.1918 39.9632 74.538C43.7551 72.8841 47.1331 70.4538 49.8654 67.4139C44.9703 68.8766 39.7838 69.1731 34.7454 68.2782V68.3276Z" fill="black"/>
</svg>
